<svg xmlns="http://www.w3.org/2000/svg" height="800" width="1200" viewBox="-13.48011 -6.35975 116.82762 38.1585"><defs><clipPath id="a" clipPathUnits="userSpaceOnUse"><path d="M278.35 382.998h72v20.358h-72z"/></clipPath></defs><g clip-path="url(#a)" transform="matrix(1.25 0 0 -1.25 -348.07 504.1865)"><path d="M313.0154 387.4258h-2.233c-.01 0-.016.002-.022.009l-1.924 2.35-1.926-2.35c-.004-.007-.011-.009-.021-.009h-1.788c-.011 0-.019.005-.027.017-.003.007-.003.02.004.028l2.834 3.481-2.801 3.448a.0365.0365 0 00-.005.033c.005.006.016.016.025.016h2.234c.007 0 .015-.004.021-.014l1.688-2.092 1.718 2.093c.005.009.013.013.021.013h1.821c.011 0 .022-.01.026-.016a.0329.0329 0 00-.004-.033l-2.659-3.193 3.037-3.736c.008-.008.011-.021.005-.028a.026.026 0 00-.024-.017m12.0859 5.7848c-.989 0-1.664-.6-1.857-1.643h3.364v.067c0 .835-.615 1.576-1.507 1.576m3.242-2.713a.0295.0295 0 00-.024-.013h-5.111c.106-1.19.879-1.868 2.13-1.868.77 0 1.588.263 2.744.878.021.012.042-.006.042-.028l-.002-1.572c-.002-.013-.008-.021-.017-.024-1.075-.453-2.155-.762-3.004-.762-2.201 0-3.796 1.604-3.796 3.813s1.595 3.813 3.796 3.813c2.008 0 3.298-1.353 3.298-3.214 0-.301-.052-1.001-.056-1.023m10.3826 5.401c-.627 0-1.137.502-1.137 1.12 0 .636.51 1.151 1.137 1.151s1.138-.515 1.138-1.151c0-.618-.511-1.12-1.138-1.12m-.918-8.473c-.018 0-.029.011-.029.029v6.965c0 .014.01.025.022.028h1.846a.027.027 0 00.023-.028v-6.965c0-.018-.012-.029-.027-.029zm-21.4163 1.049c-.333 0-.674.047-1.066.152l.004 4.468c.459.146.858.215 1.253.215 1.28 0 2.139-.944 2.139-2.346 0-1.512-.915-2.489-2.33-2.489m.502 6.259c-.521 0-1.047-.095-1.599-.285h-1.837c-.015 0-.026-.013-.026-.029v-11.422c.555.076 1.235.274 1.895.744l-.001 3.474c.453-.064.827-.107 1.188-.107 2.516 0 4.144 1.508 4.144 3.843 0 2.226-1.549 3.782-3.764 3.782m17.5529-5.6806c-.575-.302-1.089-.445-1.572-.445-1.139 0-1.822.805-1.822 2.153 0 1.56.872 2.569 2.22 2.569.372 0 .734-.091 1.174-.29zm0 9.083v-3.646c-.539.154-1.014.225-1.493.225-2.189 0-3.842-1.65-3.842-3.842 0-2.182 1.458-3.764 3.464-3.764.695 0 1.345.174 2.11.568l-.001-.629c.505.096 1.085.298 1.657.703v11.131c-.562-.075-1.228-.263-1.895-.746m11.6191-9.0692c-.556-.321-1.033-.475-1.459-.475-1.22 0-1.951.802-1.951 2.155 0 1.537.861 2.568 2.141 2.568.343 0 .759-.131 1.269-.401zm1.897 5.466c0 .043-.037.077-.079.077l-1.492-.002a.0824.0824 0 01-.081-.08v-.254h-.038c-.689.302-1.276.441-1.855.441-2.064 0-3.682-1.711-3.682-3.904 0-2.217 1.448-3.703 3.603-3.703.577 0 1.316.04 2.008.836v-.896c.489.104 1.066.312 1.614.706zm-47.9686-5.3642l4.634.002a4.1872 4.1872 0 00-.647-1.742h-4.821c-.59 0-1.075.457-1.133 1.035-.003.009-.006.017-.007.025v9.139c.001.007.004.017.007.023.058.579.543 1.038 1.133 1.038.019 0 .037-.002.053-.002l5.405.001c-.071-.517-.246-1.139-.647-1.755h-3.977v-2.488h3.937c.016 0 .028-.011.028-.027v-1.726c0-.014-.012-.027-.028-.027h-3.937v-3.494zm-5.8008-1.8851c-.458 0-.741.358-.741.796 0 .469.324.796.741.796.413 0 .736-.327.736-.796 0-.47-.323-.796-.736-.796m0 1.682c-.469 0-.87-.353-.87-.886 0-.504.362-.883.87-.883.463 0 .866.351.866.883 0 .533-.403.886-.866.886" fill="#072f54"/><path d="M293.9853 388.1523v.323h.218c.11 0 .24-.017.24-.151 0-.159-.12-.172-.257-.172zm.619.151c0 .211-.13.301-.382.301h-.397v-1.047h.173v.448h.16l.271-.448h.195l-.294.46c.159.019.274.096.274.286m54.882 4.9859c-.458 0-.743.358-.743.796 0 .469.325.796.743.796.412 0 .736-.327.736-.796 0-.47-.324-.796-.736-.796m0 1.682c-.469 0-.87-.353-.87-.886 0-.504.361-.883.87-.883.462 0 .864.352.864.883 0 .533-.402.886-.864.886" fill="#072f54"/><path d="M349.2775 394.1585v.322h.218c.11 0 .24-.016.24-.15 0-.16-.121-.172-.256-.172zm.619.151c0 .211-.13.301-.382.301h-.397v-1.047h.171v.447h.162l.271-.447h.194l-.293.46c.158.018.274.096.274.286m-61.6808 2.6316l-.336.951-2.85 3.809.512.127 4.914-4.248 2.892.827c.34.088.726.107 1.02.105-.909 1.96-2.572 3.569-4.768 4.351-4.341 1.547-9.114-.721-10.658-5.064-.478-1.343-.592-2.729-.391-4.047l6.928 2.407zm6.4564.8203c-.254-.165-.627-.381-.997-.5l-2.898-.827-1.934-6.208-.502-.163.408 4.741-.228.985-2.716-.775-7.178-1.69c.568-2.763 2.524-5.169 5.375-6.185 4.342-1.547 9.113.722 10.657 5.062.666 1.871.623 3.823.013 5.56" fill="#072f54"/><path d="M288.5209 395.7888l.229-.984-.409-4.741.502.163 1.934 6.207 2.898.827c.37.119.743.337.997.5a8.421 8.421 0 01-.304.751c-.294.002-.68-.018-1.02-.104l-2.892-.829-4.915 4.25-.511-.128 2.849-3.809.337-.95-2.738-.784-6.927-2.405c.022-.144.047-.287.076-.429l7.179 1.69z" fill="#fbc108"/></g></svg>