<svg xmlns="http://www.w3.org/2000/svg" style="isolation:isolate" width="1200" height="800" viewBox="-182.7804 -52 1584.0968 312"><defs><clipPath id="a"><path d="M0 0h1222v208H0z"/></clipPath></defs><g clip-path="url(#a)" transform="translate(-1.732)"><path d="M1220.258 194.736c-1.824 4.316-3.04 8.971-8.193 10.905-9.708 3.588-18.868-2.263-18.938-12.878-.199-36.75-.15-73.51 0-110.26-.147-7.082 5.106-13.12 12.14-13.954 5.712-.568 13.386 2.701 14.194 11.383 0 .219.528.398.807.588zm-204.172-73.998c14.861-14.791 36.55-15.509 50.764-5.412 8.432 5.98 11.602 14.951 11.851 24.59.458 17.752.179 35.513.11 53.275a13.705 13.705 0 01-8.971 13.167c-4.635 1.585-11.223-.378-14.672-4.246a10.316 10.316 0 01-2.502-7.406c.09-14.313 0-28.636 0-42.949a37.14 37.14 0 00-2.233-11.961c-1.784-5.243-8.103-9.559-13.017-9.22-6.07.419-11.502 5.213-13.127 10.904a34.199 34.199 0 00-.997 9.559v40.777c0 9.648-4.575 14.632-12.958 14.951-6.618.279-13.695-5.412-13.316-14.722.558-13.745.209-27.54.11-41.315a27.496 27.496 0 00-3.12-13.346 12.408 12.408 0 00-12.489-6.648c-5.781.488-10.566 3.747-12.43 9.568a29.9 29.9 0 00-1.375 9.489c.179 14.493.099 28.995.07 43.488 0 8.343-5.154 13.476-13.307 13.406-7.765-.07-12.778-5.272-12.778-13.386V123.17c0-6.16 3.538-11.701 8.263-13.117 6.06-1.814 11.961-.129 15.539 5.353 2.163 3.359 3.459.548 4.465-.2 9.34-6.977 19.626-7.904 30.561-5.332 6.568 1.545 11.303 5.881 15.489 10.854m-187.049-3.329c11.244-12.499 39.352-11.452 50.834.808 5.193 5.561 8.602 12.269 8.632 20.154.08 18.31 0 36.61 0 54.92 0 8.143-4.984 13.346-12.748 13.426-8.114.08-13.257-4.914-13.317-13.406-.119-15.22.06-30.45-.06-45.671-.089-12.1-10.964-19.934-21.878-15.898-5.811 2.153-9.619 8.154-9.639 15.34 0 14.862.06 29.723 0 44.584-.069 11.433-8.881 17.942-18.938 13.955-5.661-2.243-8.053-7.227-8.113-12.778q-.359-34.528 0-69.055c.11-10.196 8.512-16.197 18.4-13.755 3.618.897 5.611 3.608 6.917 7.406m-175.596-8.622c9.479-.388 18.47 1.326 26.494 6.629 5.113 3.389 6.329 9.778 3.359 16.286-2.482 5.453-5.981 6.798-12.669 5.472-3.21-.637-6.03-2.053-9.05-3.079-12.729-4.336-23.922 3.299-26.653 15.479-3.09 13.785.996 25.825 10.456 31.218 7.824 4.465 15.02 1.505 22.257-1.356 5.621-2.222 12.509-.996 15.1 2.991 3.579 5.452 2.741 10.964-1.863 15.947-2.921 3.21-6.519 4.835-10.436 6.21-15.42 5.402-30.501 4.685-43.767-4.984-10.855-7.974-16.945-19.237-19.108-32.972-2.113-13.446.259-25.845 7.316-36.879 8.782-13.715 21.38-21.929 38.564-20.992m-82.65 49.479c0-11.244-.129-22.487 0-33.72.18-12.469 10.965-18.769 21.321-12.539 4.425 2.651 5.671 7.406 5.721 11.961.249 22.476.379 44.963 0 67.439-.159 9.31-4.376 15.081-13.466 15.32-7.745.2-13.496-5.98-13.576-14.722-.109-11.243 0-22.476 0-33.719m357.89.478c0 11.064.1 22.118 0 33.172-.129 11.263-9.359 17.841-19.227 13.605-6.05-2.591-7.804-8.253-7.854-14.114-.209-22.476-.15-44.963 0-67.439 0-6.679 4.336-12.599 9.539-13.955a13.806 13.806 0 0115.399 5.831 18.288 18.288 0 012.223 9.718v33.172m-13.097-86.976c8.692 0 13.735 5.403 14.164 14.064.428 8.662-6.11 15.35-14.952 15.3-8.175-.212-14.663-6.953-14.562-15.13.06-8.463 6.23-14.234 15.35-14.234zm-331.915 0c9.18 0 15.27 5.562 15.31 13.955 0 8.791-6.26 15.21-14.702 15.419-7.785.2-15.35-7.884-14.831-14.881.657-8.801 5.611-14.493 14.223-14.493zm-26.035 10.137c0-8.103-5.043-13.296-12.818-13.356-8.143-.06-13.247 5.083-13.267 13.456v33.74c-14.313-6.978-14.313-6.978-27.161-6.978-9.967 0-18.19 4.466-24.639 11.254-14.074 14.821-17.284 43.757-8.971 62.435 10.605 23.743 41.793 34.577 59.366 16.407 1.196-1.226 1.754-.997 2.542.777 3.289 7.476 10.166 7.765 15.27 6.828 6.03-1.106 9.648-6.379 9.648-13.077V81.885m-34.148 96.535c-7.396 6.488-16.097 6.618-23.184-.259-10.356-10.058-9.469-29.055-.997-38.933 9.499-11.034 24.36-6.32 29.394 5.462a38.253 38.253 0 012.9 14.114c-1.315 6.678-1.993 14.173-8.153 19.616m272.689 10.485q-17.533-49.617-35.315-99.136c-3.11-8.651-9.449-12.529-19.127-12.519-8.842 0-15.54 4.386-18.64 12.539-5.222 13.745-10.336 27.53-15.429 41.325-6.977 18.938-14.064 37.877-20.812 56.894-3.1 8.742.12 15.39 8.074 18.261 7.246 2.611 13.774-.489 17.273-8.602a72.52 72.52 0 003.708-11.602c.997-3.987 2.711-5.981 7.316-5.592 6.12.508 12.31.13 18.47.13 2.531 0 5.073-.11 7.605 0 5.382.279 12.05-2.193 15.788.996 3.509 2.991 3.987 9.509 5.811 14.493 1.097 2.99 1.994 6.18 4.824 8.133 4.695 3.25 12.38 3.459 16.178.509 5.143-3.987 6.698-8.971 4.276-15.829m-66.643-33.321c-2.422 0-3.737-.239-2.701-3.349 4.755-14.273 9.29-28.626 13.955-42.939a9.991 9.991 0 011.355-1.874l15.46 48.142h-28.049m450.358-35.284c0-6.738-4.246-10.087-10.964-10.466-6.718-.379-11.632 2.233-14.134 8.811-15.758-16.635-41.734-10.735-53.286 2.99-14.492 17.224-16.546 37.179-9.419 57.811 6.12 17.693 20.084 28.587 40.328 28.408 7.745-.07 13.955-3.529 19.935-7.915 1.694-1.256 2.631-3.289 4.186.718 1.994 5.203 9.041 7.595 14.832 5.911 4.984-1.456 8.562-4.745 8.592-10.237q.199-38.016 0-76.031m-36.152 60.033c-7.316 5.622-18.32 3.609-24.34-5.771-7.187-11.193-5.911-28.187 4.515-37.637 7.286-6.598 19.586-3.927 23.722 2.991 3.917 6.508 6.21 12.379 6.22 19.934-.608 6.978-2.921 14.952-10.117 20.493m-694.779-12.798c7.835 0 11.752-2.521 12.719-8.592.58-3.397.549-6.87-.09-10.256-4.794-22.925-23.832-42.342-49.837-39.999-14.762 1.325-25.427 8.661-33.7 20.154-7.535 10.476-9.608 22.606-8.562 35.145.997 12.22 5.363 23.483 14.662 31.756 20.693 18.4 53.166 14.273 71.347-1.076 4.475-3.778 5.582-10.775 2.651-15.001-3.987-5.801-8.612-6.838-15.33-3.539-3.987 1.994-7.974 3.937-12.07 5.751-12.27 5.502-30.819 1.655-33.889-14.313h52.129m-52.189-22.127c2.063-8.154 10.665-14.952 18.938-14.872 8.273.08 16.945 6.868 18.838 14.951.578 2.422-.049 3.678-2.91 3.589-5.422-.17-10.855 0-16.287 0-5.253 0-10.496-.12-15.738 0-2.991.099-3.379-1.326-2.791-3.658m-32.693 47.933c-.768-13.606-4.037-26.783-5.891-40.189-2.642-19.177-6.479-38.185-9.459-57.322-1.665-10.705-7.366-16.915-17.772-18.241-7.595-.997-16.446 4.555-19.108 12.43-2.492 7.375-4.475 14.951-6.718 22.396a31982.91 31982.91 0 01-13.565 45.173c-.718-.778-1.266-1.107-1.396-1.565-5.91-19.865-11.961-39.69-17.592-59.645-3.19-11.363-8.054-17.672-19.058-18.37-9.728-.618-17.602 4.984-19.107 14.313-2.223 13.685-4.536 27.351-6.828 41.026-2.412 14.373-4.984 28.716-7.197 43.109-.558 3.638-1.495 5.362-5.571 5.283-4.326-.09-19.935-.15-33.89-.18h-3.727a20.515 20.515 0 01-9.659-2.511 99.042 99.042 0 01-10.067-6.26c-4.894-3.628-11.114-5.98-10.246-14.343 1.285-12.26 1.903-24.6 2.252-36.88.369-12.628 0-25.277.13-37.876.119-8.781-2.672-16.257-8.901-22.426-2.582-2.552-4.077-5.343-2.632-9.4 2.333.997 3.529 2.761 4.924 4.406 5.502 6.469 13.606 6.05 15.948-1.216 3.529-10.964 2.602-21.849-4.326-31.477-8.761-12.26-21.798-17.961-35.533-22.148-8.971-2.731-17.812-1.575-26.145 3.04-8.333 4.615-16.347 9.868-23.144 16.716-8.522 8.631-9.519 22.287-2.622 32.483 3.349 4.934 7.027 4.336 10.047.19 1.595-2.193 2.642-5.353 6.778-6.419-1.814 3.149-1.525 5.871-1.425 8.532a4.824 4.824 0 01-2.99 5.133c-16.995 9.08-32.365 20.264-44.555 35.494a101.02 101.02 0 00-16.416 30.68c-2.302 6.648-4.057 18.938-4.216 20.244a21.237 21.237 0 000 4.395c.139 1.565.418 3.878.548 5.821.628 9.609 3.987 17.792 12.021 23.633a1.588 1.588 0 000 .169c-2.223.559-8.413 1.555-11.772.728a5.72 5.72 0 00-.807 0c-7.101 0-12.858 5.757-12.858 12.858 0 7.101 5.757 12.858 12.858 12.858h204.711c4.375.06 8.751.1 13.127.09a14.77 14.77 0 001.574-.09c6.719-.748 10.865-6.12 11.443-13.097.269-3.21.758-6.429 1.316-9.539 3.598-20.104 5.801-40.408 8.97-60.891 7.167 24.031 14.064 48.023 21.231 71.875 2.193 7.366 6.18 9.967 13.107 10.366 8.522.518 13.905-3.668 15.878-10.077 4.436-14.393 8.323-28.905 12.47-43.438 2.621-9.17 5.302-18.33 7.973-27.49a55.968 55.968 0 011.705 6.419q4.585 31.178 8.801 62.406c1.156 8.462 6.569 12.708 15.759 12.12 6.836-.551 11.989-6.447 11.622-13.296zm-240.006-15.36c-2.292-.239-4.615-1.993-3.538-5.233.997-2.851-.18-6.21 2.123-8.701.658-.708.508-2.462 1.993-1.994a3.069 3.069 0 011.715 1.884c.837 3.05 1.465 6.16 2.262 9.678-.349 2.273-1.854 4.645-4.555 4.366z" fill="#308dd4"/></g></svg>