<svg xmlns="http://www.w3.org/2000/svg" height="800" width="1200" viewBox="-56.73 -18.45 491.66 110.7"><path d="M0 0h82.3v73.8H0V0zm44.7 51.3V23h-10v35.1s16.5.3 24.1 0c6.9-.2 11.5-4.2 13.3-10.8 1.9-7.1 2-14.3.3-21.5-1.1-4.7-3.8-8.5-8.7-10-2.4-.7-4.9-1.1-7.4-1.1-15.4-.1-48 0-48 0v6.4h14.1v37h9.8v-37h21.3c4.8 0 7.3 2 8.4 6.6 1.1 4.3 1 8.7.6 13-.2 2.3-.9 4.6-1.6 6.8-.8 2.1-2.5 3.6-4.8 3.9-4.2-.1-11.4-.1-11.4-.1z" fill="#00b625"/><path d="M141.4 44.9V22.6h10.2v3.3c1.8-2.8 4.4-3.9 7.5-3.9 3 0 5.8.6 7.4 3.6 2.1-3.2 5.2-3.8 8.7-3.6 4.2.3 6.4 2.4 6.5 6.7.1 4.6.1 9.1.1 13.7v2.5h-10.9V31c-.1-1.4-.8-2.1-2-2.1-1.1.1-1.8.7-1.8 2.2v13.8h-10.9V32.5c0-.6 0-1.3-.1-1.9-.1-1.1-.7-1.7-1.8-1.7s-1.7.6-1.9 1.7c-.1.6-.1 1.2-.1 1.8V45c-3.7-.1-7.3-.1-10.9-.1zm-40.3.1c1.3-3.6 2.5-7 3.7-10.4 2.2-6.3 4.4-12.5 6.6-18.8.3-.8.6-1.1 1.5-1.1 4.9.1 9.9 0 14.9 0 3.6 10 7.1 20 10.8 30.2h-11.1c-.8 0-1.2-.2-1.4-1-.4-1.6-.9-3.2-1.5-4.7-.1-.4-.7-.8-1.1-.8-2.7-.1-5.4 0-8.1-.1-.7 0-1 .2-1.1.9-.4 1.6-.9 3.2-1.4 4.8-.1.3-.5.8-.8.8-3.6.2-7.2.2-11 .2zm15.1-13.9h6.7c-1.1-3.3-2.1-6.4-3.2-9.6h-.3c-1.1 3.1-2.1 6.3-3.2 9.6zM349.6 45h-10v-3.6c-.2.1-.3.1-.4.1-1.6 3.3-4.4 4.3-7.8 4.1-3.5-.2-6.2-1.8-7.7-5-1.9-4.2-2-8.6-.4-13 2.4-6.8 11.9-7.4 15.4-2.3V12.6h10.9V45zm-10.3-11.5c-.2-1.1-.4-2.3-.7-3.4-.3-1-1.2-1.5-2.3-1.5-1 0-1.8.5-2.2 1.4-.8 2.2-.8 4.5 0 6.7.4 1 1.2 1.5 2.3 1.5 1.1 0 1.9-.6 2.2-1.6.4-.9.5-2 .7-3.1zm-30.6-2.9c-.2-1.6-1-2.5-2.9-2.8-3.1-.6-6-.1-8.9 1.1-.4.1-.7.3-1.1.4-.1 0-.2 0-.3-.1v-5.4c0-.3.4-.7.7-.8 5.5-1.5 11-1.7 16.4-.1 4 1.1 6 3.8 6.1 8 .1 4.6 0 9.3 0 14h-10.1v-2.8h-.3c-2.7 3.5-6.4 3.9-10.4 2.9-2.6-.6-4.6-2.2-4.9-5.1-.4-3.2.4-5.9 3.4-7.7 2.1-1.2 4.4-1.6 6.8-1.7 1.8.1 3.6.1 5.5.1zm0 4.3c-1.6.3-3.2.4-4.6.8-1.1.3-1.4 1.3-1.3 2.5.2 1.1.9 1.5 1.9 1.7 2.6.2 4.3-1.7 4-5zm-98.3 1.4h-15.1c-.1 1.6.7 2.6 2.4 3.1 2.8.8 5.6.5 8.3-.1.8-.2 1.5-.4 2.5-.7v5.3c0 .2-.4.5-.6.6-5.1 1.2-10.3 1.7-15.4.3-4.9-1.4-7.7-5-8-10.1-.1-1.1-.1-2.3.1-3.4.5-4 2.7-6.8 6.5-8.2 3.4-1.2 7-1.4 10.5-.8 4.1.7 6.8 3.2 7.8 7.2.6 2.1.7 4.4 1 6.8zm-9.6-4.8c-.1-1.5-.1-3-1.4-4-.9-.7-1.9-.6-2.8 0-1.3 1-1.5 2.4-1.5 4h5.7zm177.3 4.7h-14.8c-.1 1.6.8 2.9 2.7 3.1 2 .3 4 .3 6 .2 1.5-.1 2.9-.6 4.5-.9v5.6c-5.7 1.2-11.5 2.1-17.2 0-4.2-1.5-6.3-4.8-6.7-9.2-.1-1.5-.1-3.1.2-4.6.5-3.4 2.4-5.8 5.6-7.1 4-1.7 8.2-2 12.5-.9 4.3 1.1 6.8 4.6 7.3 9.8 0 1.3-.1 2.6-.1 4zm-15-4.8h5.7c-.1-1.6 0-3.3-1.6-4-.7-.4-2-.3-2.7.1-1.4.8-1.5 2.4-1.4 3.9zm-98.2-8.9h4.9v6.4H265c0 2.6-.1 4.9 0 7.3.1 1.4 1.1 2.1 2.5 2.1.7 0 1.4-.2 2.3-.2V44c0 .2-.3.6-.6.6-3 .9-6 1.3-9.1.8-3.4-.5-5.5-2.6-5.9-6.1-.3-2.8-.2-5.7-.2-8.5V29h-3.8v-6.4h3.8v-4.4c0-.4.4-1 .7-1.1 3.1-1 6.2-1.9 9.3-2.9.2-.1.5-.1.9-.2v8.5zm-32.8-.4c0 .3.1.5.1.8v8.2c-.5-.1-.8-.1-1.2-.2-3.8-.5-6.8 2-6.9 5.9v8.1h-10.8V22.6h10.1v4.5c2-3.5 4.4-5.8 8.7-5zm51.8 22.8h-10.8V22.5h10V27c.1.1.2.1.2.2 1.7-3.5 4.1-6 8.5-5.1V31c-.4-.1-.8-.1-1.1-.2-3.8-.5-6.8 2.1-6.8 5.9v8.2zm-36.7 0h-10.7V22.5h10.7v22.4zm-10.8-25v-7.3h10.7v7.3h-10.7z" fill="#163d22"/></svg>